Coordinates
version=1
nRows=10
nColumns=40
inDegrees=yes

Units are S.I. units (second, meters, Newtons, ...)
Angles are in degrees.

endheader
time	pelvis_tilt	pelvis_list	pelvis_rotation	pelvis_tx	pelvis_ty	pelvis_tz	hip_flexion_r	hip_adduction_r	hip_rotation_r	knee_angle_r	knee_angle_r_beta	ankle_angle_r	subtalar_angle_r	mtp_angle_r	hip_flexion_l	hip_adduction_l	hip_rotation_l	knee_angle_l	knee_angle_l_beta	ankle_angle_l	subtalar_angle_l	mtp_angle_l	lumbar_extension	lumbar_bending	lumbar_rotation	arm_flex_r	arm_add_r	arm_rot_r	elbow_flex_r	pro_sup_r	wrist_flex_r	wrist_dev_r	arm_flex_l	arm_add_l	arm_rot_l	elbow_flex_l	pro_sup_l	wrist_flex_l	wrist_dev_l
      8.11000000	     -1.12517472	     -4.30760352	      2.18209251	      1.01404077	      0.93478353	      0.42196671	     30.10860377	     -7.33277285	     -4.53973207	     64.45999237	     64.45999237	     -1.21070635	    -10.89909948	     -0.90240668	     14.99920137	     -5.56104019	     -6.34780139	     22.43592629	     22.43592629	     11.24784114	     -9.33444839	     -4.51241093	    -11.54925318	      3.08246541	      2.36503933	      5.95241161	    -12.11434638	     -2.18509848	     37.43481389	     45.37377950	      0.00000000	      0.00000000	     12.11785036	    -15.80272760	      3.75835777	     43.89301018	     45.57369511	      0.00000000	      0.00000000
      8.12300000	     -1.11219331	     -4.41038290	      1.60774838	      1.01325209	      0.93555457	      0.42153740	     30.57024563	     -7.18229738	     -4.63681421	     62.12835298	     62.12835298	     -1.07345361	    -10.94856940	     -0.99474724	     14.29102047	     -5.65408477	     -6.67968094	     21.95499606	     21.95499606	     11.36804468	     -9.57864524	     -4.48815952	    -11.70925864	      3.23667296	      2.70282664	      4.68201403	    -12.37420440	     -2.13594046	     36.12985609	     45.42207458	      0.00000000	      0.00000000	     12.93217621	    -15.84050774	      3.52294642	     45.02369963	     45.62819133	      0.00000000	      0.00000000
      8.13600000	     -1.18762920	     -4.56530855	      1.07706925	      1.01244534	      0.93609112	      0.42105239	     30.97054142	     -7.03728345	     -4.92537723	     59.55282677	     59.55282677	     -0.98099080	    -10.74896960	     -1.06964847	     13.73712147	     -5.80202303	     -6.99718375	     21.55637273	     21.55637273	     11.53433598	     -9.73377067	     -4.55991151	    -11.78549330	      3.48022781	      2.85699475	      3.51321983	    -12.59157671	     -2.16352204	     34.85500577	     45.47304275	      0.00000000	      0.00000000	     13.54416937	    -15.92692773	      3.26426529	     46.26578188	     45.68033646	      0.00000000	      0.00000000
      8.14900000	     -1.27052390	     -4.63406788	      0.52951357	      1.01167864	      0.93647758	      0.42069748	     31.21200289	     -6.91834107	     -5.18395074	     56.65652953	     56.65652953	     -1.34424106	    -10.80214902	     -2.45583804	     13.19339998	     -5.87064820	     -7.38996419	     21.15087514	     21.15087514	     11.42877903	     -9.98602163	     -5.23141666	    -11.85733613	      3.57260980	      2.22808329	      3.70379794	    -12.27314162	     -2.86900439	     31.30222614	     45.69994950	      0.00000000	      0.00000000	     12.80731785	    -16.63851976	      2.21578992	     49.89318093	     45.86185175	      0.00000000	      0.00000000
      8.16200000	     -1.33411223	     -4.71088352	     -0.01951365	      1.01098343	      0.93685383	      0.42038590	     31.32562539	     -6.76348235	     -5.46955542	     53.58698528	     53.58698528	     -1.17742814	    -10.43342341	     -2.23625572	     12.63583608	     -5.93719324	     -7.75900431	     20.77689263	     20.77689263	     11.58950953	    -10.13311093	     -5.22479465	    -11.95189570	      3.71476868	      2.51880939	      2.54157852	    -12.55367650	     -2.95016556	     30.27005564	     45.74619783	      0.00000000	      0.00000000	     13.52831623	    -16.66329052	      1.79284214	     50.93832022	     45.92933531	      0.00000000	      0.00000000
      8.17500000	     -1.50267995	     -4.77283796	     -0.52167301	      1.01032609	      0.93700955	      0.42009890	     31.38133121	     -6.63032073	     -5.86235124	     50.21089640	     50.21089640	     -0.99863925	     -9.94243657	     -1.94495948	     12.24014950	     -5.98842117	     -8.11439469	     20.46712700	     20.46712700	     11.71180924	    -10.24985638	     -5.24312821	    -11.90419439	      3.90225529	      2.58974578	      1.50446592	    -12.77410885	     -3.04215716	     29.42927430	     45.78408614	      0.00000000	      0.00000000	     14.04980252	    -16.79963297	      1.43841208	     51.91638376	     45.98265584	      0.00000000	      0.00000000
      8.18800000	     -1.56305021	     -4.78036010	     -1.08456476	      1.00979481	      0.93717169	      0.42003342	     31.18900620	     -6.48158780	     -6.20544227	     46.57119595	     46.57119595	     -0.87164766	     -9.23328557	     -1.77427478	     11.68981026	     -5.99418391	     -8.52568511	     20.12887366	     20.12887366	     11.89094603	    -10.35532239	     -5.34813170	    -12.01080205	      3.91159939	      2.85985757	      0.53183881	    -13.01981134	     -3.23539973	     28.34430313	     45.84350259	      0.00000000	      0.00000000	     14.52906800	    -16.80991803	      0.87133080	     53.55023417	     46.06386710	      0.00000000	      0.00000000
      8.20100000	     -1.70117849	     -4.73438003	     -1.62827214	      1.00931670	      0.93713572	      0.42006413	     30.92265604	     -6.35924084	     -6.61801506	     42.65164215	     42.65164215	     -0.69892526	     -8.33130010	     -1.76056158	     11.24334672	     -5.94696477	     -8.95550701	     19.81993376	     19.81993376	     11.98918658	    -10.44488203	     -5.48565385	    -12.06614278	      3.88020298	      2.94893818	     -0.26217941	    -13.16901651	     -3.54692709	     27.33029775	     45.91284012	      0.00000000	      0.00000000	     14.74484527	    -16.93491945	      0.10523779	     55.40198531	     46.16328006	      0.00000000	      0.00000000
      8.21400000	     -1.87536238	     -4.68259737	     -2.13076278	      1.00901919	      0.93697654	      0.42014389	     30.49307349	     -6.21186485	     -7.11823017	     38.43090113	     38.43090113	     -0.59714705	     -7.16893690	     -1.66010927	     10.84469131	     -5.89198554	     -9.36111151	     19.51922769	     19.51922769	     12.10955227	    -10.54980491	     -5.61032727	    -11.97368053	      3.92861714	      2.92278983	     -1.00801419	    -13.31751170	     -3.87245046	     26.55885633	     45.97304110	      0.00000000	      0.00000000	     14.88783916	    -17.05957933	     -0.66824399	     57.07704946	     46.25836259	      0.00000000	      0.00000000
      8.22700000	     -2.08695447	     -4.55379068	     -2.63027816	      1.00885450	      0.93663542	      0.42043601	     29.91330715	     -6.06950921	     -7.65448022	     33.93007074	     33.93007074	     -0.96773797	     -5.89709692	     -2.90583062	     10.45956505	     -5.76107917	     -9.79162481	     19.15845124	     19.15845124	     12.03778264	    -10.71256961	     -6.07255331	    -11.90417198	      3.77938939	      1.99118139	     -0.80756199	    -13.07203629	     -5.50605268	     25.15010737	     46.20727270	      0.00000000	      0.00000000	     13.54386788	    -17.30234175	     -3.73300235	     61.09850905	     46.58853131	      0.00000000	      0.00000000
